<svg width="227" height="413" viewBox="0 0 227 413" fill="none" xmlns="http://www.w3.org/2000/svg">
<path d="M12 0L0.452994 20H23.547L12 0ZM71.7807 202.234H73.7807V200.234H71.7807V202.234ZM71.7807 365.327H69.7807V367.327H71.7807V365.327ZM225 365.327H227V363.327H225V365.327ZM10 18V197.235H14V18H10ZM17 204.234H71.7807V200.234H17V204.234ZM69.7807 202.234V365.327H73.7807V202.234H69.7807ZM71.7807 367.327H225V363.327H71.7807V367.327ZM223 365.327V413H227V365.327H223ZM10 197.235C10 201.1 13.134 204.234 17 204.234V200.234C15.3431 200.234 14 198.891 14 197.235H10Z" fill="#FF0099"/>
</svg>
