<svg width="227" height="413" viewBox="0 0 227 413" fill="none" xmlns="http://www.w3.org/2000/svg">
<path d="M215 0L226.547 20H203.453L215 0ZM155.219 201.744H153.219V199.744H155.219V201.744ZM155.219 361.438H157.219V363.438H155.219V361.438ZM2 361.438H0V359.438H2V361.438ZM217 18V196.744H213V18H217ZM210 203.744H155.219V199.744H210V203.744ZM157.219 201.744V361.438H153.219V201.744H157.219ZM155.219 363.438H2V359.438H155.219V363.438ZM4 361.438V413H0V361.438H4ZM217 196.744C217 200.61 213.866 203.744 210 203.744V199.744C211.657 199.744 213 198.401 213 196.744H217Z" fill="#FF0099"/>
</svg>
