<svg width="217" height="413" viewBox="0 0 217 413" fill="none" xmlns="http://www.w3.org/2000/svg">
<path d="M214 0L216.887 5H211.113L214 0ZM154.219 201.744H153.719V201.244H154.219V201.744ZM154.219 361.438H154.719V361.938H154.219V361.438ZM1 361.438H0.5V360.938H1V361.438ZM214.5 4.5V196.744H213.5V4.5H214.5ZM209 202.244H154.219V201.244H209V202.244ZM154.719 201.744V361.438H153.719V201.744H154.719ZM154.219 361.938H1V360.938H154.219V361.938ZM1.5 361.438V413H0.5V361.438H1.5ZM214.5 196.744C214.5 199.782 212.038 202.244 209 202.244V201.244C211.485 201.244 213.5 199.23 213.5 196.744H214.5Z" fill="#DB00FF"/>
</svg>
