<svg width="217" height="413" viewBox="0 0 217 413" fill="none" xmlns="http://www.w3.org/2000/svg">
<path d="M3 0L0.113249 5H5.88675L3 0ZM62.7807 202.234H63.2807V201.734H62.7807V202.234ZM62.7807 365.327H62.2807V365.827H62.7807V365.327ZM216 365.327H216.5V364.827H216V365.327ZM2.5 4.5V197.235H3.5V4.5H2.5ZM8 202.734H62.7807V201.734H8V202.734ZM62.2807 202.234V365.327H63.2807V202.234H62.2807ZM62.7807 365.827H216V364.827H62.7807V365.827ZM215.5 365.327V413H216.5V365.327H215.5ZM2.5 197.235C2.5 200.272 4.96243 202.734 8 202.734V201.734C5.51472 201.734 3.5 199.72 3.5 197.235H2.5Z" fill="#DB00FF"/>
</svg>
